<svg height="512" viewBox="0 0 59 59" width="512" xmlns="http://www.w3.org/2000/svg"><g id="Page-1" fill="none" fill-rule="evenodd"><g id="023---Pointer" fill-rule="nonzero"><g fill="#d25627"><path id="Shape" d="m58 15h-4c-.5522847 0-1-.4477153-1-1s.4477153-1 1-1h4c.5522847 0 1 .4477153 1 1s-.4477153 1-1 1z"/><path id="Shape" d="m36 15h-4c-.5522847 0-1-.4477153-1-1s.4477153-1 1-1h4c.5522847 0 1 .4477153 1 1s-.4477153 1-1 1z"/><path id="Shape" d="m54.192 24.192c-.2651948-.0000566-.5195073-.1054506-.707-.293l-2.828-2.828c-.3789722-.3923789-.3735524-1.0160848.0121814-1.4018186s1.0094397-.3911536 1.4018186-.0121814l2.829 2.828c.2859079.2859943.3714219.7160366.216678 1.0896546-.1547439.3736179-.5192821.6172591-.923678.6173454z"/><path id="Shape" d="m38.636 8.636c-.2651948-.00005664-.5195073-.10545063-.707-.293l-2.829-2.828c-.3907415-.39074146-.3907415-1.02425854 0-1.415s1.0242585-.39074146 1.415 0l2.828 2.828c.2859079.28599425.3714219.71603662.216678 1.08965456s-.5192821.61725909-.923678.61734544z"/><path id="Shape" d="m45 28c-.5522847 0-1-.4477153-1-1v-4c0-.5522847.4477153-1 1-1s1 .4477153 1 1v4c0 .5522847-.4477153 1-1 1z"/><path id="Shape" d="m45 6c-.5522847 0-1-.44771525-1-1v-4c0-.55228475.4477153-1 1-1s1 .44771525 1 1v4c0 .55228475-.4477153 1-1 1z"/><path id="Shape" d="m51.364 8.636c-.4043959-.00008635-.7689341-.2437275-.923678-.61734544s-.0692299-.80366031.216678-1.08965456l2.828-2.829c.2527654-.25276542.621179-.35148156.966463-.258963.345284.09251855.6149814.36221604.7075.70750001.0925186.34528398-.0061976.71369759-.258963.96646299l-2.829 2.828c-.1874927.18754937-.4418052.29294336-.707.293z"/></g><path id="Shape" d="m26.11 49 3.355 4.575c.2243875.302935.600071.453934.9716922.3905534.3716211-.0633805.6760165-.3303679.7873078-.6905534l10.731-34.983c.1069559-.353015.0108933-.7362438-.2499314-.9970686-.2608248-.2608247-.6440536-.3568873-.9970686-.2499314l-34.985 10.731c-.36018554.1112913-.6271729.4156867-.69055343.7873078-.06338052.3716212.08761841.7473047.39055343.9716922l8.045 5.9c.2343293.1726814.3817878.4388945.4038778.7291377.0220899.2902432-.0833813.5757064-.2888778.7818623l-13.291 13.292c-.38905089.3902698-.38905089 1.0217302 0 1.412l3.529 3.529 3.529 3.529c.39026975.3890509 1.02173025.3890509 1.412 0l13.293-13.293c.2061559-.2054965.4916191-.3109677.7818623-.2888778.2902432.02209.5564563.1695485.7291377.4038778z" fill="#955ba5"/><path id="Shape" d="m12.613 30.846c-.4949333-.0001814-.9152788-.3623851-.9885996-.8518573-.0733207-.4894722.2224433-.9589459.6955996-1.1041427l5.387-1.653c.3433368-.1107604.719716-.0280055.9849276.2165569.2652117.2445625.3781371.6130153.2955088.9641857-.0826283.3511703-.3479994.6306122-.6944364.7312574l-5.386 1.651c-.0951573.0299104-.1942543.0454154-.294.046z" fill="#fff"/><path id="Shape" d="m23 27.661c-.4962087.001452-.91843-.3611859-.9919033-.8519271s.2240274-.9611351.6989033-1.1050729l1.733-.531c.5248665-.1524817 1.0749222.144691 1.2350836.6672652.1601613.5225742-.128914 1.0769282-.6490836 1.2447348l-1.733.531c-.0948887.029473-.1936401.0446396-.293.045z" fill="#fff"/><circle id="Oval" cx="46" cy="14" fill="#f0c419" r="4"/><path id="Shape" d="m46.97 18.881c-.5045236-.0010576-.9292396-.3777768-.9905039-.8785681-.0612643-.5007912.2601138-.9687839.7495039-1.0914319 1.423762-.3573041 2.3798754-1.6923912 2.2597001-3.1553753-.1201753-1.462984-1.2813408-2.6241495-2.7443248-2.7443248-1.4629841-.1201753-2.7980712.8359381-3.1553753 2.2597001-.1333768.5359923-.6760077.8623768-1.212.729s-.8623768-.6760077-.729-1.212c.5939902-2.3742702 2.8193542-3.96959643 5.2586317-3.76982505s4.375422 2.13591585 4.5751934 4.57519335c.1997713 2.4392775-1.3955549 4.6646415-3.7698251 5.2586317-.079195.0194292-.1604567.0291672-.242.029z" fill="#f29c1f"/></g></g></svg>