<svg height="512" viewBox="0 0 58 42" width="512" xmlns="http://www.w3.org/2000/svg"><g id="006---Boat" fill="none"><g fill="#9fc9d3"><path id="Shape" d="m42.75 20.17-13.75-20.17-13.75 20.17-15.25-10.17 10 32h38l10-32z"/><path id="Shape" d="m29 29.33-19 12.67-10-32z"/><path id="Shape" d="m58 10-10 32-19-12.67z"/></g><path id="Shape" d="m48 42h-38l19-12.67z" fill="#84b5cb"/><path id="Shape" d="m29 0c-2.93 29.35-2.69 27.26-2.81 27.46l-10.94-7.29z" fill="#3b97d3"/><path id="Shape" d="m42.75 20.17-10.94 7.29c-.12-.2.12 1.92-2.81-27.46z" fill="#3b97d3"/><path id="Shape" d="m31.81 27.46-2.81 1.87-2.81-1.87c.12-.2-.12 1.92 2.81-27.46 2.93 29.35 2.69 27.26 2.81 27.46z" fill="#2980ba"/></g></svg>